<svg width="100" height="100" viewBox="0 0 100 100" fill="none" xmlns="http://www.w3.org/2000/svg">
<path d="M86.2923 19.7563C84.1873 17.6502 81.688 15.9796 78.9371 14.8398C76.1862 13.7 73.2377 13.1133 70.2601 13.1133C67.2824 13.1133 64.3339 13.7 61.5831 14.8398C58.8322 15.9796 56.3329 17.6502 54.2278 19.7563L49.8591 24.125L45.4904 19.7563C41.2384 15.5042 35.4715 13.1155 29.4582 13.1155C23.4449 13.1155 17.678 15.5042 13.4259 19.7563C9.17392 24.0083 6.78516 29.7753 6.78516 35.7885C6.78516 41.8018 9.17392 47.5688 13.4259 51.8208L17.7946 56.1895L49.8591 88.254L81.9236 56.1895L86.2923 51.8208C88.3984 49.7157 90.069 47.2164 91.2088 44.4655C92.3486 41.7147 92.9353 38.7662 92.9353 35.7885C92.9353 32.8109 92.3486 29.8624 91.2088 27.1115C90.069 24.3606 88.3984 21.8613 86.2923 19.7563V19.7563Z" stroke="#1656AD" stroke-width="8.24281" stroke-linecap="round" stroke-linejoin="round"/>
</svg>
